# ProBuilder 6.0.4
# https://unity3d.com/unity/features/worldbuilding/probuilder
# 24/08/2025 3:55:35 PM

mtllib ./objChest.mtl
o objChest

g objChest
v -0.59 -10.66714 -0.9241768
v -0.8918565 -10.79 -0.9241768
v -0.2881435 -10.79 -0.9241768
v -1.036253 -10.9736 -0.9241768
v -0.1437469 -10.9736 -0.9241768
v -0.59 -10.66714 0.5365
v -0.2881435 -10.79 0.5365
v -0.8918565 -10.79 0.5365
v -0.1437469 -10.9736 0.5365
v -1.036253 -10.9736 0.5365
v -1.041414 -11.10108 -0.9241768
v -1.051311 -11.54 -0.9241768
v -0.1286884 -11.54 -0.9241768
v -0.1385857 -11.10108 -0.9241768
v -0.1385857 -11.10108 0.5365
v -0.1286884 -11.54 0.5365
v -1.051311 -11.54 0.5365
v -1.041414 -11.10108 0.5365
v -1.038833 -11.05418 -0.9241768
v -0.1411663 -11.05418 -0.9241768
v -0.1411663 -11.05418 0.5365
v -1.038833 -11.05418 0.5365
v -1.016872 -11.07411 -0.9142925
v -0.1675881 -11.06808 -0.9142925
v -0.1675881 -11.06808 0.5365
v -1.016872 -11.07411 0.5365
v -1.011754 -11.08614 -0.9132234
v -0.1617334 -11.08614 -0.9132234
v -0.1617334 -11.08614 0.5327826
v -1.011754 -11.08614 0.5327826
v -1.051311 -11.54 -0.3378244
v -0.1286884 -11.54 -0.3378244
v -1.036253 -10.9736 -0.3378244
v -0.8918565 -10.79 -0.3378244
v -0.59 -10.66714 -0.3378244
v -0.2881435 -10.79 -0.3378244
v -0.1437469 -10.9736 -0.3378244
v -1.041414 -11.10108 -0.3378244
v -0.1385857 -11.10108 -0.3378244
v -1.038833 -11.05418 -0.3378244
v -0.1437469 -10.9736 -0.341271
v -0.1437469 -10.9736 -0.9446656
v -0.1411663 -11.05418 -0.9446656
v -0.1411663 -11.05418 -0.341271
v -1.016872 -11.07411 -0.332882
v -0.1411663 -11.05418 -0.3378244
v -0.1675881 -11.06808 -0.332882
v -1.011754 -11.08614 -0.3342062
v -0.1617334 -11.08614 -0.9333938
v -0.1385857 -11.10108 -0.9446656
v -0.1385857 -11.10108 -0.341271
v -0.1617593 -11.08606 -0.3364743
v -0.1675881 -11.06808 -0.9344939
v -0.1675622 -11.06816 -0.3351235
v -0.1286884 -11.54 -0.1006589
v -1.051311 -11.54 -0.1006589
v -1.036253 -10.9736 -0.1006589
v -0.8918565 -10.79 -0.1006589
v -0.59 -10.66714 -0.1006589
v -0.1437469 -10.9736 -0.1006589
v -0.2881435 -10.79 -0.1006589
v -1.041414 -11.10108 -0.1006589
v -0.1385857 -11.10108 -0.1006589
v -1.038833 -11.05418 -0.1006589
v -1.070221 -11.05442 -0.1006589
v -1.070221 -11.05442 -0.3378244
v -1.06764 -10.97384 -0.3378244
v -1.06764 -10.97384 -0.1006589
v -0.1437469 -10.9736 0.5584654
v -0.1437469 -10.9736 -0.09721237
v -0.1411663 -11.05418 -0.09721237
v -0.1411663 -11.05418 0.5584654
v -1.016872 -11.07411 -0.09818798
v -0.1675881 -11.06808 -0.09818798
v -0.1411663 -11.05418 -0.1006589
v -1.011754 -11.08614 -0.100709
v -0.1617334 -11.08614 -0.100709
v -0.1617593 -11.08606 -0.09831434
v -0.1385857 -11.10108 -0.09721237
v -0.1675622 -11.06816 -0.09574299
v -0.1617334 -11.08614 0.5546399
v -0.1675881 -11.06808 0.5584654
v -1.037336 -11.15963 -0.1006589
v -1.037336 -11.15963 -0.3378244
v -1.068724 -11.15986 -0.1006589
v -1.068724 -11.15986 -0.3378244

vt 0 0.3715103
vt 0.3018565 0.2486492
vt -0.3018565 0.2486492
vt 0.4462531 0.0650529
vt -0.4462531 0.0650529
vt -4.736469E-05 0.3714692
vt 0.4514141 -0.062422
vt 0.4613116 -0.5013262
vt -0.4613116 -0.5013262
vt -0.4514142 -0.062422
vt 0.4488335 -0.01552297
vt -0.4488337 -0.01552297
vt 0.426872 -0.03541612
vt -0.4224119 -0.02938546
vt 0.4223646 -0.02947467
vt -0.4269194 -0.03550528
vt 0.4217539 -0.0474409
vt -0.4282665 -0.0474409
vt 0.4282193 -0.04752985
vt -0.4218011 -0.04752962
vt 0.4613116 -0.1660633
vt -0.4613116 -0.1660633
vt -0.4613116 0.1013112
vt 0.4613116 0.1013112
vt 0.1013112 -0.05513902
vt -0.1660633 -0.05513902
vt -0.1660633 0.1603471
vt 0.1013112 0.1603471
vt -0.1660633 0.359334
vt 0.1013112 0.359334
vt -0.1013112 0.1387196
vt 0.1660633 0.1387196
vt 0.1660633 -0.08176172
vt -0.1013112 -0.08176172
vt -0.1013112 0.3527539
vt 0.1660633 0.3527539
vt 0.1013112 -0.6050023
vt -0.1660633 -0.6050023
vt -0.1660633 -0.1793697
vt 0.1013112 -0.1793697
vt -0.1013112 -0.2040371
vt 0.1660633 -0.2040371
vt 0.1660633 -0.6224884
vt -0.1013112 -0.6224884
vt 0.1013112 -0.1334822
vt -0.1660633 -0.1334822
vt -0.0997396 0.05207912
vt 0.1754061 0.05207912
vt 0.1754061 -0.028541
vt -0.0997396 -0.028541
vt 0.103565 -0.1468266
vt -0.1615561 -0.1468266
vt -0.1013112 -0.1588302
vt 0.1660633 -0.1588302
vt 0.1615561 -0.1634197
vt -0.103565 -0.1634197
vt -0.1610686 -0.1570529
vt 0.1029611 -0.1570529
vt -0.3848363 -0.1702662
vt -0.4123878 -0.1754061
vt -0.4123878 0.0997396
vt -0.3847711 0.1019269
vt 0.170768 -0.1569791
vt 0.1702664 -0.1759641
vt -0.1019267 -0.17588
vt -0.1025427 -0.1570633
vt -0.4613116 0.4999999
vt 0.4613116 0.4999999
vt 0.4613116 0.2094578
vt -0.4613116 0.2094578
vt 0.4999999 -0.05513902
vt 0.2094578 -0.05513902
vt 0.2094578 0.1603471
vt 0.4999999 0.1603471
vt 0.2094578 0.359334
vt 0.4999999 0.359334
vt -0.2094578 -0.08176172
vt -0.2094578 0.1387196
vt -0.4999999 -0.08176172
vt -0.4999999 0.1387196
vt -0.2094578 0.3527539
vt -0.4999999 0.3527539
vt 0.4999999 -0.6050023
vt 0.2094578 -0.6050023
vt 0.2094578 -0.1793697
vt 0.4999999 -0.1793697
vt -0.4999999 -0.6224884
vt -0.4999999 -0.2040371
vt -0.2094578 -0.2040371
vt -0.2094578 -0.6224884
vt 0.4999999 -0.1334822
vt 0.2094578 -0.1334822
vt 0.2094578 -0.02977888
vt 0.1013112 -0.02977888
vt 0.1013112 0.05084093
vt 0.2094578 0.05084093
vt -0.5100161 0.05207912
vt -0.2110294 0.05207912
vt -0.2110294 -0.028541
vt -0.5100161 -0.028541
vt 0.4999999 -0.1468266
vt 0.2105846 -0.1468266
vt -0.2105846 -0.1634197
vt -0.2094578 -0.1588302
vt -0.4999999 -0.1634197
vt -0.4999999 -0.1588302
vt 0.209435 -0.1570529
vt 0.4983048 -0.1570529
vt -0.4983048 -0.1824023
vt -0.209435 -0.1824023
vt -0.3843971 0.2105269
vt -0.3843971 0.1019269
vt -0.4120138 0.2110294
vt -0.2105269 -0.17588
vt -0.2116995 -0.1570633
vt -0.5082716 -0.1759642
vt -0.510016 -0.1569792
vt -0.4482194 0.2094578
vt -0.4482194 0.1013112
vt -0.4796076 0.2094578
vt -0.4796076 0.1013112
vt 0.4488335 -0.01418084
vt 0.4462531 0.06639767
vt 0.4802208 -0.0144158
vt 0.4776404 0.06616271
vt -0.4462531 0.06639767
vt -0.4488335 -0.01418084
vt -0.4776404 0.06616271
vt -0.4802208 -0.0144158
vt 0.4457435 0.1013112
vt 0.4457435 0.2094578
vt 0.4771317 0.1013112
vt 0.4771317 0.2094578
vt -0.2094578 -0.007807855
vt -0.1013112 -0.007807855
vt -0.2094578 -0.1132636
vt -0.1013112 -0.1132636
vt -0.4787238 -0.1198609
vt -0.4473364 -0.119626
vt 0.4473364 -0.119626
vt 0.4787238 -0.1198609
vt 0.1013112 -0.007597224
vt 0.2094578 -0.007597224
vt 0.1013112 -0.113053
vt 0.2094578 -0.113053
vt -0.4462531 0.1013112
vt -0.4462531 -0.1660633
vt -0.4462531 0.0997396
vt -0.4462531 -0.1754061
vt -0.1660633 0.05207907
vt -0.1660633 -0.02854075
vt -0.1754061 0.05207907
vt -0.1754061 -0.02854105
vt -0.4488337 -0.1660633
vt -0.4488337 0.1013112
vt -0.4488337 -0.1754061
vt -0.4488337 0.0997396
vt -0.4488337 0.2094578
vt -0.4488337 0.2110294
vt -0.4488337 0.4999999
vt -0.4488337 0.5100161
vt -0.4462531 0.2094578
vt -0.4462531 0.2110294
vt 0.4999995 -0.02854077
vt 0.4999995 0.05207906
vt 0.5100157 -0.02854106
vt 0.5100157 0.05207906
vt -0.4462531 0.4999999
vt -0.4462531 0.5100161
vt -0.103565 -0.1568687
vt 0.1615561 -0.1568687
vt -0.1025428 -0.1569527
vt -0.4224119 0.2105846
vt -0.4224119 0.103565
vt -0.4224378 0.2116995
vt -0.4224378 0.1025428
vt -0.1615596 -0.1569735
vt -0.1610722 -0.1759587
vt -0.1707714 -0.1569732
vt -0.1702698 -0.1759582
vt -0.4514142 0.1013112
vt -0.4514142 0.2094578
vt -0.4514142 0.0997396
vt -0.4514142 0.2110294
vt 0.3848407 -0.161077
vt 0.4123917 -0.1660717
vt 0.3848404 -0.1702746
vt 0.4123919 -0.1754145
vt -0.4514142 -0.1660633
vt -0.4514142 -0.1754061
vt 0.4123932 0.2094085
vt 0.3848422 0.2093856
vt 0.4123935 0.2109801
vt 0.3847768 0.2104776
vt -0.209435 -0.1748295
vt -0.4983048 -0.1748295
vt -0.2105269 -0.1747448
vt -0.5082717 -0.174829
vt 0.4983115 -0.1759572
vt 0.5000065 -0.1569719
vt 0.5082783 -0.1759567
vt 0.5100226 -0.1569717
vt -0.4224119 0.4999999
vt -0.4224119 0.5100161

vn 0 0 -2.193
vn 0 0 2.193
vn 0.001108744 -0.2664267 -2.111156
vn 0 -0.2205799 -2.138984
vn 0.002217488 -0.3122736 -2.083328
vn 0.0001911702 -0.02692117 -2.192205
vn 9.558509E-05 -0.03370696 -2.191703
vn 0 -0.04049274 -2.191201
vn 0 0.3170455 -2.079864
vn 0.0006620893 -0.09323745 2.183447
vn 0.0003310446 -0.1163887 2.177496
vn 0 -0.13954 2.171545
vn 0 0.1127299 2.179021
vn 0 -1 0
vn -0.7860322 0.6181856 0
vn -0.3769982 0.926214 0
vn 0.7860322 0.6181856 0
vn 0.3769982 0.926214 0
vn -0.9997458 0.02254394 0
vn 0.9997458 0.02254367 0
vn -0.9994877 0.03200708 0
vn 0.9994876 0.03200991 0
vn -0.6720318 -0.7405224 0
vn 0.4655676 -0.8850123 0
vn -0.4498879 0.8930851 0
vn -0.9201723 -0.3915138 0
vn 0.5431396 0.8396419 -0.0002141089
vn 0.5423362 0.8401616 0
vn 0.5439429 0.8391222 -0.0004282179
vn 0.9512615 0.3083855 1.869521E-09
vn 0.007485662 -0.999972 0
vn -0.007485662 0.999972 0
vn 0.9998992 0.01419581 0
vn -0.9998992 -0.01419581 0
vn 0 0 0
vn -0.9994876 -0.03201003 0
vn 0.4756733 0.1540613 0
vn -0.9512642 -0.3083771 -1.750317E-05
vn -0.5423183 -0.840173 -9.552166E-05
vn -0.5423115 -0.8401774 -0.0005590243
vn -0.5431814 -0.8389008 0.05336937
vn -0.5440512 -0.8376243 0.1072978
vn 0.9521458 0.3056444 0
vn 0.4760729 0.1528222 0

usemtl Checker
f 3/3/1 2/2/1 1/1/1
f 8/3/2 7/2/2 6/6/2
f 5/5/1 4/4/1 2/2/1
f 2/2/1 3/3/1 5/5/1
f 9/4/2 7/2/2 8/3/2
f 8/3/2 10/5/2 9/4/2
f 13/9/1 12/8/1 11/7/1
f 11/7/1 14/10/1 13/9/1
f 16/8/2 15/7/2 18/10/2
f 18/10/2 17/9/2 16/8/2
f 19/11/1 4/4/1 5/5/1
f 5/5/1 20/12/1 19/11/1
f 22/12/2 21/11/2 9/4/2
f 9/4/2 10/5/2 22/12/2
f 23/13/3 19/11/4 20/12/3
f 20/12/3 24/14/5 23/13/3
f 26/16/2 25/15/2 21/11/2
f 21/11/2 22/12/2 26/16/2
f 28/18/7 27/17/8 23/13/7
f 23/13/7 24/14/6 28/18/7
f 14/10/9 11/7/9 27/17/9
f 27/17/9 28/18/9 14/10/9
f 29/19/11 25/15/10 26/16/11
f 26/16/11 30/20/12 29/19/11
f 15/7/13 29/19/13 30/20/13
f 30/20/13 18/10/13 15/7/13
f 13/21/14 32/24/14 31/23/14
f 31/23/14 12/22/14 13/21/14
f 4/26/15 33/25/15 34/28/15
f 34/28/15 2/27/15 4/26/15
f 35/30/16 1/29/16 2/27/16
f 2/27/16 34/28/16 35/30/16
f 3/32/17 36/31/17 37/34/17
f 37/34/17 5/33/17 3/32/17
f 36/31/18 3/32/18 1/36/18
f 1/36/18 35/35/18 36/31/18
f 11/39/19 12/38/19 31/37/19
f 31/37/19 38/40/19 11/39/19
f 14/42/20 39/41/20 32/44/20
f 32/44/20 13/43/20 14/42/20
f 4/26/21 19/46/21 40/45/21
f 40/45/21 33/25/21 4/26/21
f 43/49/22 42/48/22 41/47/22
f 41/47/22 44/50/22 43/49/22
f 19/46/23 23/52/23 45/51/23
f 45/51/23 40/45/23 19/46/23
f 46/53/24 47/56/24 24/55/24
f 24/55/24 20/54/24 46/53/24
f 27/57/25 11/39/25 38/40/25
f 38/40/25 48/58/25 27/57/25
f 23/52/26 27/57/26 48/58/26
f 48/58/26 45/51/26 23/52/26
f 51/61/27 50/60/28 49/59/27
f 49/59/27 52/62/29 51/61/27
f 49/64/30 53/63/30 54/66/30
f 54/66/30 52/65/30 49/64/30
f 16/68/14 17/67/14 56/70/14
f 56/70/14 55/69/14 16/68/14
f 55/69/14 56/70/14 31/23/14
f 31/23/14 32/24/14 55/69/14
f 57/72/15 10/71/15 8/74/15
f 8/74/15 58/73/15 57/72/15
f 34/28/15 33/25/15 57/72/15
f 57/72/15 58/73/15 34/28/15
f 59/75/16 35/30/16 34/28/16
f 34/28/16 58/73/16 59/75/16
f 6/76/16 59/75/16 58/73/16
f 58/73/16 8/74/16 6/76/16
f 36/31/17 61/78/17 60/77/17
f 60/77/17 37/34/17 36/31/17
f 61/78/17 7/80/17 9/79/17
f 9/79/17 60/77/17 61/78/17
f 61/78/18 36/31/18 35/35/18
f 35/35/18 59/81/18 61/78/18
f 7/80/18 61/78/18 59/81/18
f 59/81/18 6/82/18 7/80/18
f 62/85/19 56/84/19 17/83/19
f 17/83/19 18/86/19 62/85/19
f 38/40/19 31/37/19 56/84/19
f 56/84/19 62/85/19 38/40/19
f 63/89/20 15/88/20 16/87/20
f 16/87/20 55/90/20 63/89/20
f 32/44/20 39/41/20 63/89/20
f 63/89/20 55/90/20 32/44/20
f 57/72/21 64/92/21 22/91/21
f 22/91/21 10/71/21 57/72/21
f 67/95/21 66/94/21 65/93/21
f 65/93/21 68/96/21 67/95/21
f 70/98/22 69/97/22 72/100/22
f 72/100/22 71/99/22 70/98/22
f 41/47/22 70/98/22 71/99/22
f 71/99/22 44/50/22 41/47/22
f 73/102/23 26/101/23 22/91/23
f 22/91/23 64/92/23 73/102/23
f 40/45/23 45/51/23 73/102/23
f 73/102/23 64/92/23 40/45/23
f 75/104/24 74/103/24 47/56/24
f 47/56/24 46/53/24 75/104/24
f 21/106/24 25/105/24 74/103/24
f 74/103/24 75/104/24 21/106/24
f 76/107/25 48/58/25 38/40/25
f 38/40/25 62/85/25 76/107/25
f 30/108/25 76/107/25 62/85/25
f 62/85/25 18/86/25 30/108/25
f 76/107/26 30/108/26 26/101/26
f 26/101/26 73/102/26 76/107/26
f 48/58/26 76/107/26 73/102/26
f 73/102/26 45/51/26 48/58/26
f 63/89/28 77/110/28 29/109/28
f 29/109/28 15/88/28 63/89/28
f 79/113/29 51/61/29 52/112/29
f 52/112/29 78/111/29 79/113/29
f 78/114/30 52/65/30 54/66/30
f 54/66/30 80/115/30 78/114/30
f 81/116/30 78/114/30 80/115/30
f 80/115/30 82/117/30 81/116/30
f 86/121/31 84/119/31 83/118/31
f 83/118/31 85/120/31 86/121/31
f 67/125/1 33/123/1 40/122/1
f 40/122/1 66/124/1 67/125/1
f 65/129/2 64/127/2 57/126/2
f 57/126/2 68/128/2 65/129/2
f 68/133/32 57/131/32 33/130/32
f 33/130/32 67/132/32 68/133/32
f 84/137/33 40/135/33 64/134/33
f 64/134/33 83/136/33 84/137/33
f 83/139/2 64/127/2 65/129/2
f 65/129/2 85/138/2 83/139/2
f 86/141/1 66/124/1 40/122/1
f 40/122/1 84/140/1 86/141/1
f 85/145/34 65/143/34 66/142/34
f 66/142/34 86/144/34 85/145/34
f 42/149/35 5/147/35 37/146/35
f 37/146/35 41/148/35 42/149/35
f 43/153/36 20/151/36 5/150/36
f 5/150/36 42/152/36 43/153/36
f 44/157/35 46/155/35 20/154/35
f 20/154/35 43/156/35 44/157/35
f 71/159/35 75/158/35 46/155/35
f 46/155/35 44/157/35 71/159/35
f 72/161/35 21/160/35 75/158/35
f 75/158/35 71/159/35 72/161/35
f 41/148/35 37/146/35 60/162/35
f 60/162/35 70/163/35 41/148/35
f 69/167/36 9/165/36 21/164/36
f 21/164/36 72/166/36 69/167/36
f 70/163/35 60/162/35 9/168/35
f 9/168/35 69/169/35 70/163/35
f 53/63/35 24/171/37 47/170/30
f 47/170/30 54/172/37 53/63/35
f 54/176/35 47/174/35 74/173/35
f 74/173/35 80/175/35 54/176/35
f 49/180/38 28/178/38 24/177/38
f 24/177/38 53/179/38 49/180/38
f 79/184/35 63/182/35 39/181/35
f 39/181/35 51/183/35 79/184/35
f 50/188/39 14/186/39 28/185/39
f 28/185/39 49/187/39 50/188/39
f 51/183/35 39/181/35 14/189/35
f 14/189/35 50/190/35 51/183/35
f 78/194/42 77/192/41 63/191/40
f 63/191/40 79/193/41 78/194/42
f 81/198/35 29/196/44 77/195/43
f 77/195/43 78/197/44 81/198/35
f 82/202/38 25/200/38 29/199/38
f 29/199/38 81/201/38 82/202/38
f 80/175/30 74/173/37 25/203/35
f 25/203/35 82/204/37 80/175/30

