# ProBuilder 6.0.5
# https://unity3d.com/unity/features/worldbuilding/probuilder
# 24/08/2025 6:34:14 PM

mtllib ./objMushBody.mtl
o objMushBody

g objMushBody
v -1.24623 0.9172134 -0.4266115
v -1.217838 1.351982 -0.4266115
v -0.9268987 0.9172134 0.3443213
v -0.9068225 1.351982 0.3242452
v -0.1559657 0.9172134 0.6636522
v -0.1559657 1.351982 0.6352602
v 0.614967 0.9172134 0.3443213
v 0.5948909 1.351982 0.3242452
v 0.9342979 0.9172134 -0.4266117
v 0.905906 1.351982 -0.4266116
v 0.6149671 0.9172134 -1.197544
v 0.594891 1.351982 -1.177468
v -0.1559658 0.9172134 -1.516875
v -0.1559658 1.351982 -1.488483
v -0.9268985 0.9172134 -1.197544
v -0.9068224 1.351982 -1.177468
v -1.043596 2.136095 -0.4266115
v -0.783615 2.136095 0.2010376
v -0.1559658 2.136095 0.4610185
v 0.4716834 2.136095 0.2010376
v 0.7316642 2.136095 -0.4266116
v 0.4716834 2.136095 -1.054261
v -0.1559658 2.136095 -1.314242
v -0.7836149 2.136095 -1.054261
v -0.9791889 0.5462965 -0.4266115
v -0.1559658 0.5462965 -0.4266115
v -0.7380725 0.5462965 0.1554951
v -1.080685 3.963177 -0.4266115
v -0.1559658 3.963177 -0.4266115
v -0.8098412 3.963177 0.2272639
v -0.1559658 0.5462965 0.3966116
v -0.1559658 3.963177 0.4981079
v 0.4261408 0.5462965 0.1554951
v 0.4979096 3.963177 0.2272639
v 0.6672573 0.5462965 -0.4266116
v 0.7687536 3.963177 -0.4266116
v 0.4261409 0.5462965 -1.008718
v 0.4979097 3.963177 -1.080487
v -0.1559658 0.5462965 -1.249835
v -0.1559658 3.963177 -1.351331
v -0.7380723 0.5462965 -1.008718
v -0.8098411 3.963177 -1.080487
v -0.1614672 2.761462 -1.213626
v 0.3982025 2.760036 -0.9807798
v -0.7107371 2.761462 -0.986111
v 0.6277465 2.760036 -0.4266116
v 0.3982025 2.760036 0.1275567
v -0.1559658 2.760036 0.3571007
v -0.7101341 2.760036 0.1275567
v -0.9396781 2.760036 -0.4266115
v -1.495801 3.081269 -1.771775
v -0.1619135 3.081269 -2.32429
v -1.3111 3.488403 -1.581746
v -0.1559658 3.488403 -2.060218
v -2.059191 3.082811 -0.4268278
v -1.789572 3.488403 -0.4266115
v 1.189818 3.082811 -1.772611
v 0.9991686 3.488403 -1.581746
v 1.74726 3.082811 -0.4268279
v 1.477641 3.488403 -0.4266117
v 1.189818 3.082811 0.918956
v 0.9991685 3.488403 0.7285228
v -0.1559657 3.082811 1.476398
v -0.1559657 3.488403 1.206995
v -1.50175 3.082811 0.918956
v -1.3111 3.488403 0.7285228
v 0.8744665 2.890886 -1.457117
v -0.1622681 2.890886 -1.882774
v 0.9812349 2.630259 -1.564496
v 1.180458 2.808559 -1.76365
v -0.1617789 2.807973 -2.312943
v -0.1625231 2.630998 -2.035142
v -1.183592 2.890886 -1.459728
v -1.488363 2.808065 -1.763598
v -1.291646 2.631091 -1.567588
v 1.301285 2.890886 -0.4266855
v 1.452719 2.630339 -0.4265383
v 1.734463 2.808639 -0.4264697
v 0.8744664 2.890886 0.6037469
v 0.981521 2.630321 0.7109677
v 1.180744 2.808621 0.910259
v -0.1559657 2.890886 1.030566
v -0.1559847 2.630314 1.182126
v -0.1559846 2.808614 1.463939
v -1.186398 2.890886 0.6037469
v -1.293491 2.630321 0.7109677
v -1.492713 2.808621 0.9102591
v -1.613217 2.890886 -0.4266854
v -1.765186 2.630553 -0.4269198
v -2.04693 2.808854 -0.4268512
v -1.152138 0.6618719 -0.4266115
v -0.8603659 0.6618719 0.2777885
v -0.1559657 0.6618719 0.5695606
v 0.5484343 0.6618719 0.2777885
v 0.8402064 0.6618719 -0.4266116
v 0.5484343 0.6618719 -1.131012
v -0.1559658 0.6618719 -1.422784
v -0.8603657 0.6618719 -1.131012

vt -0.4172259 -0.3086495
vt -0.4063608 0.1269099
vt 0.4172258 -0.3086495
vt 0.4063607 0.1269099
vt -0.4063608 -0.0147704
vt -0.3396814 0.785696
vt 0.4063607 -0.0147704
vt 0.3396812 0.785696
vt -0.8232231 0
vt 0 0
vt -0.5821066 0.5821066
vt 0.9247195 0
vt 0.6538754 0.6538754
vt 3.598423E-08 0.8232231
vt -3.146456E-08 0.9247195
vt 0.5821066 0.5821066
vt -0.6538754 0.6538754
vt 0.8232231 -7.196845E-08
vt -0.9247195 -8.084155E-08
vt 0.5821067 -0.5821066
vt -0.6538755 -0.6538752
vt -9.816837E-09 -0.8232231
vt 1.998338E-08 -0.9247195
vt -0.5821065 -0.5821067
vt 0.6538753 -0.6538755
vt 0.3396814 0.8361787
vt -0.3396813 0.8361787
vt 0.3062601 1.46873
vt -0.2999137 1.467462
vt 0.3396811 0.8424621
vt -0.3396813 0.8424621
vt 0.2984307 1.474394
vt -0.2960947 1.474394
vt 0.3396812 0.8344362
vt -0.3396813 0.8344362
vt 0.2999136 1.465721
vt -0.2999137 1.465721
vt -0.3046082 1.466735
vt 0.7230748 0.7305986
vt -0.7207151 0.7305986
vt 0.625154 1.206409
vt -0.6251542 1.206409
vt 0.7362779 0.7169652
vt -0.7219028 0.7151568
vt 0.6321449 1.192734
vt -0.6181502 1.189703
vt 0.7214764 0.7484583
vt -0.7384983 0.7502524
vt 0.6163377 1.222244
vt -0.6339496 1.225975
vt 0.7285326 0.7130392
vt -0.7281329 0.7130392
vt 0.625154 1.189059
vt -0.625154 1.189059
vt 0.7285327 0.7138675
vt -0.7281334 0.7138675
vt 0.6251543 1.189801
vt -0.6251543 1.189801
vt 0.7284155 0.7144521
vt -0.7282501 0.7144521
vt 0.6251541 1.190324
vt -0.6251541 1.190324
vt 0.7281333 0.7138672
vt -0.7285325 0.7138672
vt 0.4921745 0.4105583
vt -0.6209213 -0.158905
vt -0.1177596 1.007142
vt -0.7478386 0.6847913
vt 0.06477109 0.6376511
vt -0.3327763 -0.5477718
vt -0.7884178 0.6376511
vt -1.013453 -0.03336945
vt 0.6209215 -0.158905
vt -0.4921745 0.4105585
vt 0.7478388 0.6847911
vt 0.1177596 1.007142
vt 0.3327762 -0.5477716
vt -0.06477095 0.6376509
vt 1.013453 -0.03336929
vt 0.7884179 0.637651
vt -0.06477095 -0.6376512
vt 0.3327763 0.5477718
vt 0.7884179 -0.6376511
vt 1.013454 0.03336943
vt -0.4921744 -0.4105585
vt 0.6209214 0.1589049
vt 0.1177597 -1.007142
vt 0.7478388 -0.6847913
vt -0.6209214 0.1589049
vt 0.4921746 -0.4105585
vt -0.7478387 -0.6847913
vt -0.1177595 -1.007142
vt -0.3327763 0.5477717
vt 0.06477095 -0.6376511
vt -1.013454 0.03336937
vt -0.7884179 -0.6376511
vt 0.1217111 -1.075827
vt 0.6794866 -0.8384755
vt 1.164665 -1.323706
vt 0.1312286 -1.75731
vt 1.469441 -1.561567
vt 1.70715 -1.795313
vt 0.408042 -2.440014
vt 0.3627453 -2.113759
vt -0.6803786 -0.8420102
vt -0.1328613 -1.073711
vt -0.1439902 -1.75517
vt -1.162055 -1.324341
vt -0.3806017 -2.111874
vt -0.4250832 -2.438241
vt -1.707693 -1.792858
vt -1.472298 -1.562581
vt 0.8480444 -0.6673706
vt 1.073376 -0.1114763
vt 1.759507 -0.1115504
vt 1.340521 -1.145192
vt 2.142617 -0.08153274
vt 2.476039 -0.08146249
vt 2.007873 -1.451058
vt 1.744179 -1.247076
vt 1.0734 0.1114844
vt 0.8480691 0.6673792
vt 1.340546 1.145053
vt 1.759531 0.1114103
vt 1.744397 1.24678
vt 2.008087 1.450901
vt 2.476005 0.08177676
vt 2.142583 0.08170655
vt 0.6802829 0.8377764
vt 0.1279006 1.071585
vt 0.1383973 1.757564
vt 1.165509 1.322814
vt 0.3712857 2.111753
vt 0.4164863 2.442156
vt 1.70955 1.79301
vt 1.471635 1.559356
vt -0.1279005 1.071586
vt -0.6802829 0.8377764
vt -1.165509 1.322815
vt -0.1383972 1.757564
vt -1.471671 1.559351
vt -1.709587 1.793005
vt -0.4165227 2.442151
vt -0.371322 2.111748
vt -0.8480691 0.6673793
vt -1.0734 0.1114845
vt -1.759531 0.1114104
vt -1.340546 1.145053
vt -2.143149 0.08131143
vt -2.476572 0.0813817
vt -2.008119 1.450897
vt -1.744429 1.246775
vt -1.073376 -0.1136415
vt -0.8489079 -0.6749523
vt -1.337766 -1.150001
vt -1.759507 -0.1137156
vt -1.744753 -1.25016
vt -2.00572 -1.450992
vt -2.477448 -0.08118904
vt -2.144026 -0.08142263
vt -0.7284157 1.989106
vt 0.7282501 1.989106
vt -0.7233956 1.714676
vt 0.7234648 1.714668
vt -0.7281334 1.990444
vt 0.7285326 1.990444
vt -0.7235708 1.716005
vt 0.7233045 1.716023
vt -0.5576376 0.8824093
vt 0.5576942 0.8824093
vt -0.6156198 0.5865948
vt 0.6156031 0.586596
vt -0.7285326 1.98822
vt 0.7281333 1.98822
vt -0.7238618 1.714028
vt 0.7235563 1.713782
vt -0.557734 0.8843179
vt 0.5575975 0.8843179
vt -0.61608 0.5885953
vt 0.6156846 0.5886108
vt -0.5577341 0.8827172
vt 0.5575978 0.8827172
vt -0.7281329 1.99197
vt 0.7285326 1.99197
vt -0.7235667 1.717538
vt 0.7238353 1.717453
vt -0.7373158 1.991025
vt 0.7226593 1.989482
vt -0.7320364 1.716518
vt 0.7182465 1.715989
vt -0.558893 0.876069
vt 0.5618223 0.876069
vt -0.6169992 0.5804663
vt 0.6198068 0.5802777
vt -0.7207152 1.981815
vt 0.7230747 1.981815
vt -0.7164972 1.708316
vt 0.7193322 1.708413
vt -0.5540462 0.8734236
vt 0.5514268 0.8734236
vt -0.6125984 0.5778317
vt 0.6094996 0.5778143
vt -0.5595143 0.8797246
vt 0.5593042 0.8797246
vt -0.6176537 0.5839421
vt 0.6174027 0.5840447
vt -0.7231091 1.978668
vt 0.735072 1.980211
vt -0.7184404 1.705281
vt 0.7303133 1.706024
vt 0.6161065 0.5869809
vt -0.3150339 -0.04614512
vt -0.3812186 0.1417633
vt 0.3812186 0.1417633
vt 0.3150338 -0.0461451
vt -0.4172259 0.3987848
vt 0.4172258 0.3987848

vn -0.9222026 0.06022314 0.3819889
vn -0.3819888 0.06022317 0.9222026
vn 0.3819889 0.06022314 0.9222026
vn 0.9222026 0.06022317 0.3819888
vn 0.9222026 0.06022317 -0.381989
vn 0.381989 0.06022292 -0.9222026
vn -0.3819889 0.06022314 -0.9222026
vn -0.9222026 0.06022294 -0.381989
vn -0.9050042 0.2011058 0.3748651
vn -0.3748651 0.2011057 0.9050043
vn 0.3748651 0.2011057 0.9050043
vn 0.9050043 0.2011057 0.3748651
vn 0.9050043 0.2011057 -0.3748651
vn 0.3748651 0.2011058 -0.9050042
vn -0.3748649 0.2011058 -0.9050043
vn -0.9050042 0.2011058 -0.3748651
vn 0 -1 0
vn 0 1 0
vn 0.3783374 0.1502833 -0.913387
vn 0.3791585 0.1512419 -0.9128872
vn 0.3799795 0.1522005 -0.9123873
vn -0.3787078 0.1437674 -0.9142818
vn 0.9131327 0.1520826 -0.3782321
vn 0.9131328 0.1520827 0.378232
vn 0.3782321 0.1520826 0.9131327
vn -0.378232 0.1520827 0.9131327
vn -0.9131328 0.1520826 0.378232
vn -0.9131327 0.1520827 -0.3782321
vn -0.9143299 0.1497791 -0.3762398
vn -0.915527 0.1474756 -0.3742476
vn -0.3274486 0.517531 -0.7905309
vn -0.7860854 0.522729 -0.3298852
vn -0.7895463 0.5179011 -0.3291798
vn -0.7930073 0.5130732 -0.3284744
vn 0.3242099 0.5114376 -0.7958137
vn 0.3251165 0.5175391 -0.7914515
vn 0.3260231 0.5236406 -0.7870893
vn 0.7871906 0.5234621 -0.326065
vn 0.7873339 0.5232095 0.3261243
vn 0.3261663 0.5230312 0.7874351
vn -0.3261663 0.5230311 0.7874352
vn -0.7873339 0.5232096 0.3261243
vn -0.2246079 0.8096385 -0.5422515
vn -0.5422515 0.8096385 -0.224608
vn 0.224608 0.8096385 -0.5422515
vn 0.5422516 0.8096385 -0.224608
vn 0.5422516 0.8096385 0.224608
vn 0.224608 0.8096385 0.5422516
vn -0.2246079 0.8096385 0.5422515
vn -0.5422516 0.8096385 0.224608
vn 0.07631639 -0.9789239 -0.1894303
vn 0.07728072 -0.9787368 -0.1900023
vn 0.07824503 -0.9785495 -0.1905744
vn 0.2149068 -0.824218 -0.5239078
vn 0.2146047 -0.8245413 -0.5235232
vn 0.2152088 -0.8238949 -0.5242923
vn -0.07837809 -0.9788014 -0.1892215
vn -0.2174021 -0.8229603 -0.5248549
vn 0.1901062 -0.9786005 -0.07874454
vn 0.5221391 -0.8249819 -0.2162771
vn 0.1901227 -0.9785967 0.07875139
vn 0.5220674 -0.825035 0.2162473
vn 0.07875624 -0.9785941 0.1901344
vn 0.2162263 -0.8250725 0.5220168
vn -0.07875624 -0.9785941 0.1901344
vn -0.2162262 -0.8250725 0.5220169
vn -0.1901227 -0.9785967 0.0787514
vn -0.5220672 -0.8250352 0.2162472
vn -0.1900827 -0.9784808 -0.08027399
vn -0.1896032 -0.9786395 -0.07946365
vn -0.1891237 -0.9787982 -0.07865331
vn -0.5238054 -0.8235125 -0.2178419
vn -0.5228922 -0.8241206 -0.2177335
vn -0.5219789 -0.8247287 -0.2176251
vn -0.3823477 -0.04187896 0.923069
vn 0.9230379 -0.04267414 0.3823347
vn 0.3370912 -0.4733734 -0.8138103
vn -0.9230895 -0.04134779 0.382356
vn -0.9230227 -0.04194908 0.3824514
vn -0.9229559 -0.04255037 0.3825467
vn 0.3823463 -0.04196895 0.9230655
vn -0.3370912 -0.4733737 -0.8138101
vn -0.8142366 -0.4725137 0.3372678
vn -0.8139943 -0.4729142 0.3372914
vn -0.8138816 -0.4732296 -0.3371207
vn 0.9230018 -0.04358069 -0.3823198
vn 0.9229784 -0.04378793 -0.3823526
vn 0.3775592 -0.04311069 -0.9249814
vn 0.3780227 -0.04066105 -0.9248996
vn 0.3784862 -0.03821141 -0.9248179
vn -0.3339192 -0.4764934 0.813297
vn -0.3347194 -0.4747849 0.8139645
vn -0.3355196 -0.4730765 0.8146319
vn -0.3823994 -0.03851869 -0.9231939
vn -0.3823611 -0.03828043 -0.9232197
vn 0.3363397 -0.4770095 0.811996
vn 0.3363262 -0.4767809 0.8121359
vn 0.8126704 -0.4746993 0.3379757
vn 0.8121498 -0.4760334 0.3373463
vn 0.8116292 -0.4773675 0.3367169
vn -0.9217414 -0.03665001 -0.3860695
vn -0.9218264 -0.03893976 -0.3856351
vn -0.9219113 -0.04122951 -0.3852008
vn 0.8138816 -0.4732296 -0.3371208
vn 0.8135302 -0.4738089 -0.3371547
vn 0.8131788 -0.4743882 -0.3371886
vn -0.5414639 -0.8102559 0.2242817
vn -0.8745857 -0.322279 0.3622652
vn -0.2242816 -0.8102559 0.5414639
vn -0.3622653 -0.3222788 0.8745857
vn 0.2242817 -0.810256 0.5414637
vn 0.3622654 -0.3222787 0.8745857
vn 0.5414639 -0.8102559 0.2242816
vn 0.8745857 -0.3222787 0.3622653
vn 0.5414637 -0.8102561 -0.2242816
vn 0.8745858 -0.3222786 -0.3622654
vn 0.2242816 -0.810256 -0.5414637
vn 0.3622654 -0.3222783 -0.8745859
vn -0.2242816 -0.810256 -0.5414637
vn -0.3622653 -0.3222786 -0.8745858
vn -0.5414639 -0.8102559 -0.2242817
vn -0.8745857 -0.3222788 -0.3622654

usemtl matMushroom
f 25/9/17 26/10/17 27/11/17
f 27/11/17 26/10/17 31/14/17
f 31/14/17 26/10/17 33/16/17
f 33/16/17 26/10/17 35/18/17
f 35/18/17 26/10/17 37/20/17
f 37/20/17 26/10/17 39/22/17
f 39/22/17 26/10/17 41/24/17
f 41/24/17 26/10/17 25/9/17
f 30/13/18 29/10/18 28/12/18
f 32/15/18 29/10/18 30/13/18
f 34/17/18 29/10/18 32/15/18
f 36/19/18 29/10/18 34/17/18
f 38/21/18 29/10/18 36/19/18
f 40/23/18 29/10/18 38/21/18
f 42/25/18 29/10/18 40/23/18
f 28/12/18 29/10/18 42/25/18
f 4/4/1 2/2/1 1/1/1
f 1/1/1 3/3/1 4/4/1
f 6/4/2 4/2/2 3/1/2
f 3/1/2 5/3/2 6/4/2
f 8/4/3 6/2/3 5/1/3
f 5/1/3 7/3/3 8/4/3
f 10/4/4 8/2/4 7/1/4
f 7/1/4 9/3/4 10/4/4
f 12/4/5 10/2/5 9/1/5
f 9/1/5 11/3/5 12/4/5
f 14/4/6 12/2/6 11/1/6
f 11/1/6 13/3/6 14/4/6
f 16/4/7 14/2/7 13/1/7
f 13/1/7 15/3/7 16/4/7
f 2/4/8 16/2/8 15/1/8
f 15/1/8 1/3/8 2/4/8
f 18/8/9 17/6/9 2/5/9
f 2/5/9 4/7/9 18/8/9
f 19/8/10 18/6/10 4/5/10
f 4/5/10 6/7/10 19/8/10
f 20/8/11 19/6/11 6/5/11
f 6/5/11 8/7/11 20/8/11
f 21/8/12 20/6/12 8/5/12
f 8/5/12 10/7/12 21/8/12
f 22/8/13 21/6/13 10/5/13
f 10/5/13 12/7/13 22/8/13
f 23/8/14 22/6/14 12/5/14
f 12/5/14 14/7/14 23/8/14
f 24/8/15 23/6/15 14/5/15
f 14/5/15 16/7/15 24/8/15
f 17/8/16 24/6/16 16/5/16
f 16/5/16 2/7/16 17/8/16
f 44/29/21 22/27/20 23/26/19
f 23/26/19 43/28/20 44/29/21
f 43/33/22 23/31/22 24/30/22
f 24/30/22 45/32/22 43/33/22
f 46/37/23 21/35/23 22/34/23
f 22/34/23 44/36/23 46/37/23
f 47/37/24 20/35/24 21/34/24
f 21/34/24 46/36/24 47/37/24
f 48/37/25 19/35/25 20/34/25
f 20/34/25 47/36/25 48/37/25
f 49/37/26 18/35/26 19/34/26
f 19/34/26 48/36/26 49/37/26
f 50/37/27 17/35/27 18/34/27
f 18/34/27 49/36/27 50/37/27
f 45/38/30 24/35/29 17/34/28
f 17/34/28 50/36/29 45/38/30
f 54/42/31 52/40/31 51/39/31
f 51/39/31 53/41/31 54/42/31
f 53/46/34 51/44/33 55/43/32
f 55/43/32 56/45/33 53/46/34
f 58/50/37 57/48/36 52/47/35
f 52/47/35 54/49/36 58/50/37
f 60/54/38 59/52/38 57/51/38
f 57/51/38 58/53/38 60/54/38
f 62/58/39 61/56/39 59/55/39
f 59/55/39 60/57/39 62/58/39
f 64/62/40 63/60/40 61/59/40
f 61/59/40 62/61/40 64/62/40
f 66/62/41 65/60/41 63/59/41
f 63/59/41 64/61/41 66/62/41
f 56/58/42 55/64/42 65/63/42
f 65/63/42 66/57/42 56/58/42
f 40/68/43 54/66/43 53/65/43
f 53/65/43 42/67/43 40/68/43
f 42/72/44 53/70/44 56/69/44
f 56/69/44 28/71/44 42/72/44
f 38/76/45 58/74/45 54/73/45
f 54/73/45 40/75/45 38/76/45
f 36/80/46 60/78/46 58/77/46
f 58/77/46 38/79/46 36/80/46
f 34/84/47 62/82/47 60/81/47
f 60/81/47 36/83/47 34/84/47
f 32/88/48 64/86/48 62/85/48
f 62/85/48 34/87/48 32/88/48
f 30/92/49 66/90/49 64/89/49
f 64/89/49 32/91/49 30/92/49
f 28/96/50 56/94/50 66/93/50
f 66/93/50 30/95/50 28/96/50
f 68/100/52 67/99/53 44/98/52
f 44/98/52 43/97/51 68/100/52
f 71/103/54 70/102/55 69/101/54
f 69/101/54 72/104/56 71/103/54
f 68/107/57 43/106/57 45/105/57
f 45/105/57 73/108/57 68/107/57
f 71/110/58 72/109/58 75/112/58
f 75/112/58 74/111/58 71/110/58
f 67/116/59 76/115/59 46/114/59
f 46/114/59 44/113/59 67/116/59
f 70/119/60 78/118/60 77/117/60
f 77/117/60 69/120/60 70/119/60
f 76/124/61 79/123/61 47/122/61
f 47/122/61 46/121/61 76/124/61
f 78/127/62 81/126/62 80/125/62
f 80/125/62 77/128/62 78/127/62
f 47/129/63 79/132/63 82/131/63
f 82/131/63 48/130/63 47/129/63
f 80/136/64 81/135/64 84/134/64
f 84/134/64 83/133/64 80/136/64
f 48/137/65 82/140/65 85/139/65
f 85/139/65 49/138/65 48/137/65
f 83/144/66 84/143/66 87/142/66
f 87/142/66 86/141/66 83/144/66
f 50/146/67 49/145/67 85/148/67
f 85/148/67 88/147/67 50/146/67
f 89/149/68 86/152/68 87/151/68
f 87/151/68 90/150/68 89/149/68
f 73/155/71 45/154/70 50/153/69
f 50/153/69 88/156/70 73/155/71
f 74/158/73 75/157/72 89/160/73
f 89/160/73 90/159/74 74/158/73
f 84/164/75 63/162/75 65/161/75
f 65/161/75 87/163/75 84/164/75
f 78/168/76 59/166/76 61/165/76
f 61/165/76 81/167/76 78/168/76
f 86/172/77 85/170/77 82/169/77
f 82/169/77 83/171/77 86/172/77
f 87/176/80 65/174/79 55/173/78
f 55/173/78 90/175/79 87/176/80
f 81/164/81 61/162/81 63/161/81
f 63/161/81 84/163/81 81/164/81
f 83/172/82 82/170/82 79/169/82
f 79/169/82 80/171/82 83/172/82
f 77/180/84 76/178/83 67/177/83
f 67/177/83 69/179/83 77/180/84
f 80/172/85 79/182/85 76/181/85
f 76/181/85 77/171/85 80/172/85
f 70/186/87 57/184/87 59/183/86
f 59/183/86 78/185/87 70/186/87
f 71/190/90 52/188/89 57/187/88
f 57/187/88 70/189/89 71/190/90
f 69/194/93 67/192/92 68/191/91
f 68/191/91 72/193/92 69/194/93
f 74/198/95 51/196/95 52/195/94
f 52/195/94 71/197/95 74/198/95
f 72/202/97 68/200/97 73/199/96
f 73/199/96 75/201/97 72/202/97
f 75/206/100 73/204/99 88/203/98
f 88/203/98 89/205/99 75/206/100
f 90/210/103 55/208/102 51/207/101
f 51/207/101 74/209/102 90/210/103
f 89/211/106 88/182/105 85/181/104
f 85/181/104 86/171/105 89/211/106
f 91/213/107 25/212/107 27/215/107
f 27/215/107 92/214/107 91/213/107
f 1/216/108 91/213/108 92/214/108
f 92/214/108 3/217/108 1/216/108
f 92/213/109 27/212/109 31/215/109
f 31/215/109 93/214/109 92/213/109
f 3/216/110 92/213/110 93/214/110
f 93/214/110 5/217/110 3/216/110
f 93/213/111 31/212/111 33/215/111
f 33/215/111 94/214/111 93/213/111
f 93/213/112 94/214/112 7/217/112
f 7/217/112 5/216/112 93/213/112
f 35/215/113 95/214/113 94/213/113
f 94/213/113 33/212/113 35/215/113
f 94/213/114 95/214/114 9/217/114
f 9/217/114 7/216/114 94/213/114
f 35/212/115 37/215/115 96/214/115
f 96/214/115 95/213/115 35/212/115
f 95/213/116 96/214/116 11/217/116
f 11/217/116 9/216/116 95/213/116
f 39/215/117 97/214/117 96/213/117
f 96/213/117 37/212/117 39/215/117
f 96/213/118 97/214/118 13/217/118
f 13/217/118 11/216/118 96/213/118
f 41/215/119 98/214/119 97/213/119
f 97/213/119 39/212/119 41/215/119
f 97/213/120 98/214/120 15/217/120
f 15/217/120 13/216/120 97/213/120
f 41/212/121 25/215/121 91/214/121
f 91/214/121 98/213/121 41/212/121
f 98/213/122 91/214/122 1/217/122
f 1/217/122 15/216/122 98/213/122

