# ProBuilder 6.0.4
# https://unity3d.com/unity/features/worldbuilding/probuilder
# 24/08/2025 3:55:52 PM

mtllib ./objRock.mtl
o objRock

g objRock
v -1.99713 -11.06216 -0.04764372
v -2.305451 -11.06216 -0.04764372
v -2.284824 -10.89532 -0.1600372
v -2.095018 -10.92937 -0.1600372
v -2.570375 -11.06216 -0.04764372
v -2.465999 -10.89532 -0.1600372
v -2.022971 -11.06694 -0.4910722
v -2.109324 -10.9498 -0.4175154
v -2.238478 -10.90435 -0.4175154
v -2.235088 -11.06694 -0.4910722
v -2.431233 -10.88392 -0.4528555
v -2.52702 -11.06216 -0.5193622
v -1.975537 -11.27608 -0.02605062
v -2.305451 -11.27608 -0.02605062
v -2.305451 -11.14314 -0.02605062
v -1.975537 -11.14314 -0.02605062
v -2.591968 -11.27608 -0.02605062
v -2.591968 -11.14314 -0.02605062
v -2.003923 -11.25565 -0.5101205
v -2.003923 -11.13837 -0.5101205
v -2.235088 -11.13837 -0.5101205
v -2.256674 -11.25565 -0.5101205
v -2.535561 -11.14314 -0.5170721
v -2.560943 -11.27608 -0.5339493
v -2.587731 -11.06216 -0.2919415
v -2.49593 -10.88392 -0.3064464
v -2.080473 -10.93958 -0.2887762
v -1.988352 -11.06455 -0.269358
v -2.573995 -11.27608 -0.2919415
v -2.579393 -11.14314 -0.2919415
v -1.968032 -11.14075 -0.2680857
v -1.968032 -11.26587 -0.2680857
v -2.261651 -10.89413 -0.2887762
v -2.281062 -11.26587 -0.2680856

vt 1.078945 0.3935026
vt 0.4479103 0.3935026
vt 0.4901266 0.7879258
vt 0.8785985 0.7213847
vt -0.09430605 0.3935026
vt 0.1193196 0.7879258
vt -0.004177213 0.4441773
vt 0.1649419 0.7085987
vt 0.4289605 0.8024352
vt 0.4294327 0.4480103
vt 0.8265485 0.8340824
vt 1.029049 0.4525269
vt 1.12314 -0.03766918
vt 0.4479102 -0.03766918
vt 0.4479102 0.2221296
vt 1.12314 0.2221296
vt -0.1385003 -0.03766918
vt -0.1385003 0.2221296
vt -0.04119873 0.05689228
vt -0.04119873 0.2930216
vt 0.4313498 0.2971988
vt 0.4754766 0.06145945
vt 1.046278 0.2904877
vt 1.099864 0.01707658
vt 1.019763 0.4113345
vt 0.5239636 0.3948469
vt 0.479946 0.7917784
vt 0.7740145 0.7878315
vt 0.05034286 0.4145491
vt 0.1710153 0.8161409
vt -0.006616533 0.3636504
vt 0.2340661 0.6801429
vt 0.4955229 0.6465712
vt 0.4454924 0.3457221
vt 0.7618548 0.6404838
vt 0.9024758 0.3552783
vt 1.067219 -0.02450776
vt 0.5218062 -0.02564383
vt 0.522654 0.2371122
vt 1.067219 0.2407095
vt 0.02590364 -0.02818543
vt 0.05635729 0.2491982
vt -0.05316967 -0.06554186
vt -0.05316967 0.1931588
vt 0.4406097 0.1846138
vt 0.4406097 -0.05884266
vt 0.9392632 0.2035533
vt 0.9392632 -0.0246591
vt 0.4624701 0.206849
vt 0.1882836 0.2087143
vt 0.132454 0.47115
vt 0.5122131 0.4697308
vt 0.1646896 0.7339574
vt 0.5589244 0.7333577
vt 0.8590668 0.1348732
vt 0.9903572 0.4349254
vt 0.9265853 0.7349115
vt 0.5409055 0.04390243
vt 0.4906021 0.5396729
vt 1.131161 0.5401624
vt 1.058113 0.04429784
vt 0.4402987 1.035443
vt 1.115406 1.035959
vt -0.08251882 -0.003621221
vt -0.1092278 0.4912701
vt -0.1460061 1.034995

vn 0 0.3156503 0.3729483
vn 0.02399983 0.291605 0.3894726
vn 0.04799965 0.2675596 0.4059969
vn 0 0.2729758 0.4052281
vn 0 0.2598205 -0.4137861
vn 0.03527567 0.2301608 -0.4268631
vn 0.07055134 0.200501 -0.4399402
vn 0.1007872 0.1988028 -0.434793
vn 0.074054 0.1731392 -0.4490953
vn 0.04732075 0.1474755 -0.4633976
vn 0 0 0.4885955
vn 0 0.1258937 0.4720978
vn 0 0 -0.4885955
vn 0.02444521 0.02623994 -0.4859273
vn 0.01027265 0.05958792 -0.4848395
vn 0.03861777 -0.007108033 -0.4870151
vn 0 0.1258933 -0.472098
vn 0.04758319 0.1252948 -0.4698539
vn 0.02955843 0.05513548 -0.4790411
vn 0.01153367 -0.01502384 -0.4882283
vn -0.4045624 0.2724496 0.02874181
vn -0.4127851 0.2488576 0.06617208
vn -0.4210078 0.2252655 0.1036024
vn -0.4056784 0.2260966 -0.1441016
vn -0.4020252 0.2560918 -0.1073235
vn -0.4093316 0.1961014 -0.1808797
vn 0.3881919 0.2964531 0.01217244
vn 0.3897741 0.294105 0.01661992
vn 0.3913562 0.2917569 0.02106739
vn 0.3912859 0.2714594 -0.1092279
vn 0.3811455 0.2917137 -0.08526022
vn 0.3710051 0.311968 -0.06129257
vn -0.4875668 -0.009887782 -0.02800345
vn -0.4870836 -0.01977556 -0.03292449
vn -0.48805 0 -0.02308241
vn -0.4789259 0.03760306 -0.05955794
vn -0.4786421 0.094662 -0.02581473
vn -0.4792097 -0.01945588 -0.09330115
vn -0.4730551 0.1201827 -0.02237323
vn -0.4789357 0.03512953 0.006035083
vn -0.4848163 -0.04992365 0.03444339
vn -0.4735212 -0.0003278654 -0.1091653
vn -0.4772976 0.04771594 -0.09292886
vn -0.4697448 -0.04837167 -0.1254017
vn 0.4883608 0 0.0151434
vn 0.4833104 0 -0.07167011
vn 0.4707782 0.1297748 0.01587499
vn 0.4712537 0.1279295 0.01659563
vn 0.4717292 0.1260843 0.01731627
vn 0.4669241 0.1232743 -0.07423541
vn 0.4648827 0.1323155 -0.0707397
vn 0.4628414 0.1413566 -0.06724399
vn 0.1396055 0.46475 -0.04415728
vn 0.1604012 0.4558467 -0.07211683
vn 0.1188099 0.4736533 -0.01619773
vn 0.11873 0.4733348 -0.02414343
vn 0.102467 0.4769264 -0.002110565
vn 0.08620396 0.480518 0.0199223
vn 0.04763292 0.4858124 0.02104853
vn 0.03572451 0.4863087 -0.006645808
vn 0.0238161 0.486805 -0.03434015
vn 0.02066399 0.4880896 0.00819454
vn 0.01033199 0.4876059 0.02305449
vn 0 0.4871222 0.03791445
vn -3.833586E-09 -0.4881609 -0.02060311
vn 0.03259622 -0.4875038 0.00175802
vn 0.02556731 -0.4876942 -0.008482707
vn 0.01853841 -0.4878846 -0.01872343
vn 0.009269204 -0.48824 -0.009361717
vn 0 -0.4885955 0

usemtl Checker
f 4/4/2 3/3/3 2/2/2 1/1/1
f 6/6/4 5/5/4 2/2/4 3/3/4
f 7/7/5 10/10/6 9/9/7 8/8/6
f 9/9/8 10/10/9 12/12/10 11/11/9
f 16/16/11 15/15/11 14/14/11 13/13/11
f 15/15/11 18/18/11 17/17/11 14/14/11
f 2/2/12 15/15/12 16/16/12 1/1/12
f 5/5/12 18/18/12 15/15/12 2/2/12
f 19/19/13 22/22/13 21/21/13 20/20/13
f 22/22/16 24/24/14 23/23/15 21/21/14
f 20/20/17 21/21/17 10/10/17 7/7/17
f 10/10/18 21/21/19 23/23/20 12/12/19
f 5/25/21 6/28/22 26/27/23 25/26/22
f 25/26/24 26/27/26 11/30/24 12/29/25
f 4/32/28 1/31/27 28/34/28 27/33/29
f 27/33/30 28/34/31 7/36/32 8/35/31
f 18/40/35 30/39/33 29/38/34 17/37/33
f 30/39/38 23/42/36 24/41/37 29/38/36
f 25/26/41 30/39/40 18/40/39 5/25/40
f 12/29/42 23/42/43 30/39/42 25/26/44
f 16/44/45 13/43/45 32/46/45 31/45/45
f 31/45/46 32/46/46 19/48/46 20/47/46
f 1/31/48 16/44/47 31/45/48 28/34/49
f 28/34/50 31/45/51 20/47/52 7/36/51
f 27/51/53 8/50/54 9/49/53 33/52/55
f 4/53/57 27/51/56 33/52/57 3/54/58
f 33/52/61 9/49/60 11/55/59 26/56/60
f 33/52/62 26/56/63 6/57/64 3/54/63
f 34/59/65 22/58/65 19/61/65 32/60/65
f 14/62/65 34/59/65 32/60/65 13/63/65
f 29/65/67 24/64/66 22/58/67 34/59/68
f 17/66/70 29/65/69 34/59/68 14/62/69

